<?xml version="1.0" encoding="UTF-8" standalone="no"?>
<!-- Created with Inkscape (http://www.inkscape.org/) -->

<svg
   width="129.02376mm"
   height="68.900673mm"
   viewBox="0 0 129.02376 68.900673"
   version="1.1"
   id="svg1"
   xmlns="http://www.w3.org/2000/svg"
   xmlns:svg="http://www.w3.org/2000/svg">
  <defs
     id="defs1" />
  <g
     id="layer1"
     transform="translate(-39.770177,-62.754416)">
    <g
       id="layer1-8"
       transform="translate(22.441976,60.918655)">
      <rect
         style="fill:none;stroke:#000000;stroke-width:0.29443"
         id="rect1"
         width="25.694662"
         height="25.694662"
         x="17.475416"
         y="44.804466" />
      <path
         style="fill:none;stroke:#000000;stroke-width:0.289618"
         d="m 30.342842,44.824629 c 0.09419,25.766203 -0.03356,25.766994 -0.03356,25.766994"
         id="path1" />
      <path
         style="fill:none;stroke:#000000;stroke-width:0.289618"
         d="M 43.274393,57.609878 C 17.5082,57.707002 17.507394,57.579251 17.507394,57.579251"
         id="path1-1" />
      <rect
         style="fill:none;stroke:#000000;stroke-width:0.29443"
         id="rect1-2"
         width="25.694662"
         height="25.694662"
         x="51.820484"
         y="44.804165" />
      <path
         style="fill:none;stroke:#000000;stroke-width:0.289618"
         d="m 64.687907,44.824328 c 0.09419,25.766204 -0.03356,25.766994 -0.03356,25.766994"
         id="path1-11" />
      <path
         style="fill:none;stroke:#000000;stroke-width:0.289618"
         d="m 77.619458,57.609578 c -25.766194,0.09712 -25.767,-0.03063 -25.767,-0.03063"
         id="path1-1-8" />
      <rect
         style="fill:#cc3b83;fill-opacity:1;stroke:none;stroke-width:0.567932;stroke-opacity:1"
         id="rect3-0"
         width="12.571502"
         height="12.663783"
         x="64.813911"
         y="57.726753" />
      <rect
         style="fill:none;stroke:#000000;stroke-width:0.29443"
         id="rect1-2-1"
         width="25.694662"
         height="25.694662"
         x="86.165283"
         y="44.804165" />
      <path
         style="fill:none;stroke:#000000;stroke-width:0.289618"
         d="M 99.03271,44.824327 C 99.1269,70.590531 98.99913,70.591322 98.99913,70.591322"
         id="path1-11-3" />
      <path
         style="fill:none;stroke:#000000;stroke-width:0.289618"
         d="M 111.96426,57.609577 C 86.198066,57.7067 86.197265,57.578949 86.197265,57.578949"
         id="path1-1-8-3" />
      <path
         style="font-size:4.23333px;font-family:Arial;-inkscape-font-specification:Arial;fill:#000000;fill-opacity:1;stroke:#000000;stroke-width:0.28926"
         d="m 31.123932,41.573599 0.306057,0.0773 q -0.09624,0.377049 -0.347076,0.575828 -0.249262,0.197202 -0.610536,0.197202 -0.373894,0 -0.608958,-0.151451 -0.233488,-0.153029 -0.356541,-0.441732 -0.121476,-0.288703 -0.121476,-0.620002 0,-0.361274 0.137252,-0.629468 0.13883,-0.269772 0.392825,-0.408601 0.255574,-0.140408 0.561631,-0.140408 0.347075,0 0.583717,0.176693 0.236642,0.176692 0.329721,0.496948 l -0.301324,0.07099 q -0.08046,-0.252418 -0.233487,-0.367584 -0.153028,-0.115166 -0.384937,-0.115166 -0.266617,0 -0.446465,0.127787 -0.17827,0.127787 -0.250841,0.343919 -0.07257,0.214556 -0.07257,0.44331 0,0.295013 0.08519,0.51588 0.08677,0.219288 0.268194,0.328143 0.181426,0.108856 0.392825,0.108856 0.257151,0 0.435422,-0.148296 0.17827,-0.148296 0.241375,-0.440154 z"
         id="text4"
         aria-label="C" />
      <path
         style="font-size:4.23333px;font-family:Arial;-inkscape-font-specification:Arial;fill:#000000;fill-opacity:1;stroke:#000000;stroke-width:0.28926"
         d="m 65.488574,41.573559 0.306057,0.0773 q -0.09623,0.377051 -0.347075,0.57583 -0.249263,0.197201 -0.610537,0.197201 -0.373894,0 -0.608958,-0.151451 -0.233487,-0.153028 -0.356541,-0.441731 -0.121476,-0.288704 -0.121476,-0.620002 0,-0.361274 0.137252,-0.629468 0.13883,-0.269772 0.392826,-0.408602 0.255574,-0.140408 0.56163,-0.140408 0.347076,0 0.583717,0.176692 0.236642,0.176694 0.329721,0.496949 l -0.301323,0.07099 q -0.08046,-0.252418 -0.233487,-0.367584 -0.153029,-0.115166 -0.384938,-0.115166 -0.266617,0 -0.446465,0.127787 -0.17827,0.127786 -0.25084,0.34392 -0.07257,0.214555 -0.07257,0.443309 0,0.295014 0.08519,0.51588 0.08677,0.219288 0.268194,0.328143 0.181426,0.108855 0.392826,0.108855 0.257151,0 0.435422,-0.148295 0.17827,-0.148296 0.241375,-0.440154 z"
         id="text4-8"
         aria-label="C" />
      <path
         style="font-size:4.23333px;font-family:Arial;-inkscape-font-specification:Arial;fill:#000000;fill-opacity:1;stroke:#000000;stroke-width:0.28926"
         d="m 97.991048,42.345013 0.888194,-2.312781 h 0.329718 l 0.94657,2.312781 h -0.34865 l -0.269774,-0.70046 h -0.967074 l -0.253998,0.70046 z m 0.667327,-0.949723 h 0.784076 l -0.241375,-0.640511 q -0.11043,-0.291858 -0.164069,-0.479595 -0.04419,0.222444 -0.124633,0.441732 z"
         id="text4-70"
         aria-label="A" />
      <path
         style="font-size:4.23333px;font-family:Arial;-inkscape-font-specification:Arial;fill:#000000;fill-opacity:1;stroke:#000000;stroke-width:0.28926"
         d="m 132.56175,42.345013 v -2.312781 h 0.86769 q 0.26504,0 0.42438,0.07099 0.16092,0.06941 0.25084,0.216133 0.0915,0.14514 0.0915,0.30448 0,0.148295 -0.0805,0.279237 -0.0805,0.130942 -0.24294,0.2114 0.20981,0.06153 0.32183,0.209823 0.11358,0.148295 0.11358,0.35023 0,0.162494 -0.0694,0.302902 -0.0678,0.13883 -0.1688,0.214555 -0.10096,0.07573 -0.254,0.115166 -0.15144,0.03786 -0.37231,0.03786 z m 0.30606,-1.340971 h 0.50011 q 0.20351,0 0.29185,-0.02682 0.11675,-0.0347 0.17512,-0.115165 0.06,-0.08046 0.06,-0.201935 0,-0.115165 -0.0553,-0.201934 -0.0553,-0.08835 -0.15776,-0.119899 -0.10255,-0.03313 -0.35181,-0.03313 h -0.46224 z m 0,1.068045 h 0.57583 q 0.1483,0 0.20825,-0.01104 0.1057,-0.01893 0.17669,-0.0631 0.071,-0.04418 0.11674,-0.127787 0.0458,-0.08519 0.0458,-0.195623 0,-0.129365 -0.0662,-0.224022 -0.0662,-0.09624 -0.18459,-0.134097 -0.11674,-0.03944 -0.33761,-0.03944 h -0.53481 z"
         id="text4-0"
         aria-label="B" />
      <path
         style="font-weight:bold;font-size:4.23333px;-inkscape-font-specification:'sans-serif Bold';stroke-width:0.28926"
         d="m 48.815279,57.21757 h -2.01619 v -0.422801 h 2.01619 z m 0,0.829824 h -2.01619 v -0.4228 h 2.01619 z"
         id="text4-7"
         aria-label="=" />
      <path
         style="font-weight:bold;font-size:4.23333px;-inkscape-font-specification:'sans-serif Bold';stroke-width:0.28926"
         d="m 83.037604,57.771848 h -0.840868 v 0.832979 h -0.432271 v -0.832979 h -0.840868 v -0.422801 h 0.840868 v -0.83298 h 0.432271 v 0.83298 h 0.840868 z"
         id="text4-7-9"
         aria-label="+" />
      <path
         style="font-weight:bold;font-size:4.23333px;-inkscape-font-specification:'sans-serif Bold';stroke-width:0.28926"
         d="m 117.24167,57.821418 -0.17512,0.260307 -0.50483,-0.34392 0.0173,0.560052 h -0.33603 l 0.0126,-0.545854 -0.49538,0.331299 -0.17196,-0.261884 0.56006,-0.329721 -0.55848,-0.332877 0.17038,-0.263461 0.4938,0.336032 -0.0111,-0.545855 h 0.33446 l -0.0126,0.547433 0.50011,-0.332877 0.17511,0.261884 -0.56479,0.328143 z"
         id="text4-7-9-2"
         aria-label="*" />
      <rect
         style="fill:none;stroke:#000000;stroke-width:0.29443"
         id="rect1-2-1-5"
         width="25.694662"
         height="25.694662"
         x="120.51009"
         y="44.804165" />
      <path
         style="fill:none;stroke:#000000;stroke-width:0.289274"
         d="m 133.37749,44.824608 c 0.0943,25.663708 -0.0336,25.664495 -0.0336,25.664495"
         id="path1-11-3-0" />
      <path
         style="fill:none;stroke:#000000;stroke-width:0.289618"
         d="m 146.30905,57.609577 c -25.76619,0.09712 -25.76699,-0.03063 -25.76699,-0.03063"
         id="path1-1-8-3-7" />
      <rect
         style="fill:#cc3b83;fill-opacity:1;stroke:none;stroke-width:0.56678;stroke-opacity:1"
         id="rect3-0-06"
         width="12.545909"
         height="12.638191"
         x="30.494085"
         y="57.702541" />
      <path
         id="rect1-2-6"
         style="fill:none;stroke:#000000;stroke-width:0.29443"
         d="M 69.18988,6.7715573 H 94.884542 V 32.466219 H 69.18988 Z" />
      <path
         style="fill:none;stroke:#000000;stroke-width:0.289618"
         d="m 82.057309,6.7917141 c 0.09419,25.7662019 -0.03356,25.7669919 -0.03356,25.7669919"
         id="path1-11-2" />
      <path
         style="fill:none;stroke:#000000;stroke-width:0.289618"
         d="m 94.98886,19.576962 c -25.766194,0.09712 -25.767,-0.03063 -25.767,-0.03063"
         id="path1-1-8-2" />
      <path
         d="M -26.072912,67.017754 V 63.98745 h 0.411344 l 1.591633,2.379181 V 63.98745 h 0.384472 v 3.030304 h -0.411344 l -1.591632,-2.381248 v 2.381248 z m 3.832321,0 v -2.672703 h -0.998388 V 63.98745 h 2.401919 v 0.357601 h -1.002522 v 2.672703 z m 1.821076,0 V 63.98745 h 1.343586 q 0.405143,0 0.615983,0.08268 0.21084,0.08062 0.33693,0.287321 0.12609,0.206706 0.12609,0.456819 0,0.322461 -0.208772,0.543636 -0.208773,0.221175 -0.644922,0.28112 0.159164,0.07648 0.241846,0.150895 0.1757,0.16123 0.332796,0.403075 l 0.527099,0.824756 h -0.504362 L -18.654249,66.3873 q -0.1757,-0.272852 -0.289388,-0.417546 -0.113688,-0.144693 -0.204639,-0.202571 -0.08888,-0.05788 -0.181901,-0.08061 -0.06821,-0.01447 -0.223242,-0.01447 h -0.465087 v 1.345654 z m 0.401009,-1.692919 h 0.861962 q 0.274919,0 0.429948,-0.05581 0.155029,-0.05788 0.235644,-0.181901 0.08062,-0.126091 0.08062,-0.272852 0,-0.214973 -0.157096,-0.353466 -0.155029,-0.138493 -0.491959,-0.138493 h -0.959114 z m 2.528009,0.217041 q 0,-0.754475 0.405143,-1.180289 0.405143,-0.42788 1.04593,-0.42788 0.419613,0 0.756543,0.200504 0.33693,0.200504 0.512629,0.560172 0.177767,0.357601 0.177767,0.812353 0,0.460953 -0.186035,0.824755 -0.186035,0.363802 -0.527099,0.551904 -0.341064,0.186035 -0.735872,0.186035 -0.42788,0 -0.76481,-0.206706 -0.33693,-0.206705 -0.510563,-0.564306 -0.173633,-0.3576 -0.173633,-0.756542 z m 0.413411,0.0062 q 0,0.54777 0.293522,0.864029 0.295589,0.314193 0.740006,0.314193 0.452685,0 0.74414,-0.318327 0.293522,-0.318326 0.293522,-0.903303 0,-0.370003 -0.12609,-0.644921 -0.124024,-0.276986 -0.365869,-0.427881 -0.239779,-0.152962 -0.539502,-0.152962 -0.425813,0 -0.733804,0.293522 -0.305925,0.291455 -0.305925,0.97565 z m 3.530531,1.469677 -0.804085,-3.030304 h 0.411344 l 0.460954,1.986441 q 0.07441,0.312125 0.128157,0.620116 0.115755,-0.485758 0.136426,-0.560172 l 0.576708,-2.046385 h 0.483691 l 0.434082,1.533755 q 0.163297,0.570508 0.235644,1.072802 0.05788,-0.287321 0.150895,-0.659391 l 0.475423,-1.947166 h 0.403076 l -0.830956,3.030304 h -0.38654 l -0.63872,-2.308901 q -0.08061,-0.289388 -0.09508,-0.355534 -0.04754,0.208773 -0.08888,0.355534 l -0.642854,2.308901 z"
         id="text1"
         style="font-size:4.23333px;font-family:Arial;-inkscape-font-specification:Arial;stroke-width:0.379"
         transform="rotate(-88.908005)"
         aria-label="NTROW" />
      <path
         d="M 75.163029,4.9198046 V 1.8895011 h 0.411344 l 1.591633,2.379181 v -2.379181 h 0.384472 v 3.0303035 h -0.411344 l -1.591632,-2.381248 v 2.381248 z m 3.832321,0 V 2.2471017 H 77.996962 V 1.8895011 h 2.401919 V 2.2471017 H 79.396359 V 4.9198046 Z M 82.972365,3.857338 83.373374,3.9586237 Q 83.247283,4.45265 82.918622,4.713099 q -0.326595,0.258382 -0.799951,0.258382 -0.489892,0 -0.797883,-0.1984374 Q 81.014863,4.5725392 80.853633,4.1942681 80.69447,3.8159969 80.69447,3.3819152 q 0,-0.4733557 0.179834,-0.8247551 0.181901,-0.3534665 0.514697,-0.5353674 0.334863,-0.183968 0.735871,-0.183968 0.454753,0 0.764811,0.2315103 0.310058,0.2315102 0.432014,0.6511225 L 82.92689,2.813475 Q 82.82147,2.4827461 82.620966,2.331851 82.420461,2.180956 82.116604,2.180956 q -0.349332,0 -0.584977,0.1674315 -0.233577,0.1674315 -0.328661,0.4506181 -0.09508,0.2811195 -0.09508,0.5808426 0,0.3865394 0.111621,0.6759272 0.113688,0.2873207 0.351399,0.4299475 0.237712,0.1426268 0.514697,0.1426268 0.33693,0 0.570508,-0.1943032 0.233577,-0.1943032 0.316259,-0.5767085 z m 0.773079,-0.4134111 q 0,-0.7544753 0.405143,-1.1802887 0.405143,-0.4278805 1.04593,-0.4278805 0.419613,0 0.756543,0.2005044 0.33693,0.2005044 0.512629,0.560172 0.177767,0.3576006 0.177767,0.8123529 0,0.4609534 -0.186035,0.8247551 -0.186035,0.3638018 -0.527099,0.5519039 -0.341064,0.186035 -0.735872,0.186035 -0.42788,0 -0.76481,-0.2067056 Q 84.09271,4.5580699 83.919077,4.2004692 83.745444,3.8428686 83.745444,3.4439269 Z m 0.413411,0.0062 q 0,0.5477697 0.293522,0.8640292 0.295589,0.3141924 0.740006,0.3141924 0.452685,0 0.74414,-0.3183265 0.293522,-0.3183266 0.293522,-0.9033033 0,-0.3700029 -0.12609,-0.6449213 Q 85.979931,2.4848131 85.738086,2.3339181 85.498307,2.180956 85.198584,2.180956 q -0.425813,0 -0.733804,0.2935219 -0.305925,0.2914548 -0.305925,0.9756502 z m 2.984828,1.4696765 V 1.8895011 h 0.401009 V 4.562204 h 1.492414 v 0.3576006 z"
         id="text2"
         style="font-size:4.23333px;font-family:Arial;-inkscape-font-specification:Arial;stroke-width:0.379"
         aria-label="NTCOL" />
      <g
         id="g6"
         transform="translate(0.06548143,5.369477)">
        <path
           d="m 24.485333,13.118446 v -3.030303 h 0.411344 l 1.591633,2.379181 v -2.379181 h 0.384472 v 3.030303 h -0.411344 l -1.591633,-2.381248 v 2.381248 z m 3.832321,0 v -2.672702 h -0.998388 v -0.357601 h 2.401919 v 0.357601 h -1.002522 v 2.672702 z m 1.821076,0 v -3.030303 h 1.343586 q 0.405143,0 0.615983,0.08268 0.210839,0.08061 0.33693,0.287321 0.12609,0.206705 0.12609,0.456819 0,0.322461 -0.208773,0.543636 -0.208772,0.221175 -0.644921,0.281119 0.159163,0.07648 0.241846,0.150895 0.175699,0.161231 0.332796,0.403076 l 0.527099,0.824755 h -0.504362 l -0.401009,-0.630452 q -0.175699,-0.272851 -0.289387,-0.417545 -0.113688,-0.144694 -0.204639,-0.202571 -0.08888,-0.05788 -0.181901,-0.08061 -0.06821,-0.01447 -0.223242,-0.01447 h -0.465087 v 1.345653 z m 0.401009,-1.692918 h 0.861962 q 0.274918,0 0.429947,-0.05581 0.15503,-0.05788 0.235645,-0.181901 0.08062,-0.12609 0.08062,-0.272851 0,-0.214974 -0.157096,-0.353466 -0.155029,-0.138493 -0.49196,-0.138493 h -0.959113 z m 2.528009,0.217041 q 0,-0.754476 0.405143,-1.180289 0.405143,-0.427881 1.04593,-0.427881 0.419612,0 0.756542,0.200505 0.33693,0.200504 0.51263,0.560172 0.177767,0.357601 0.177767,0.812353 0,0.460953 -0.186035,0.824755 -0.186035,0.363802 -0.527099,0.551904 -0.341064,0.186035 -0.735872,0.186035 -0.42788,0 -0.764811,-0.206706 -0.33693,-0.206705 -0.510562,-0.564306 -0.173633,-0.357601 -0.173633,-0.756542 z m 0.413411,0.0062 q 0,0.54777 0.293522,0.864029 0.295589,0.314193 0.740006,0.314193 0.452685,0 0.74414,-0.318327 0.293522,-0.318327 0.293522,-0.903303 0,-0.370003 -0.126091,-0.644922 -0.124023,-0.276985 -0.365868,-0.42788 -0.239779,-0.152962 -0.539502,-0.152962 -0.425813,0 -0.733805,0.293522 -0.305924,0.291454 -0.305924,0.97565 z m 3.530531,1.469676 -0.804085,-3.030303 h 0.411344 l 0.460953,1.98644 q 0.07441,0.312126 0.128158,0.620117 0.115755,-0.485758 0.136426,-0.560172 l 0.576708,-2.046385 h 0.483691 l 0.434082,1.533755 q 0.163297,0.570507 0.235644,1.072802 0.05788,-0.287321 0.150895,-0.659391 l 0.475423,-1.947166 h 0.403076 l -0.830957,3.030303 h -0.386539 l -0.63872,-2.308901 q -0.08061,-0.289387 -0.09508,-0.355533 -0.04754,0.208772 -0.08888,0.355533 l -0.642854,2.308901 z m 6.552566,-1.781802 h -2.00091 v -0.347265 h 2.00091 z m 0,0.91984 h -2.00091 v -0.347265 h 2.00091 z m 3.542933,0.504362 v 0.3576 h -2.002976 q -0.0041,-0.134358 0.04341,-0.258382 0.07648,-0.204638 0.243912,-0.403075 0.169499,-0.198438 0.487825,-0.458887 0.494027,-0.405143 0.667659,-0.640787 0.173633,-0.237711 0.173633,-0.448551 0,-0.221175 -0.159163,-0.37207 -0.157096,-0.152962 -0.411344,-0.152962 -0.268718,0 -0.429948,0.16123 -0.16123,0.161231 -0.163297,0.446484 l -0.382406,-0.03927 q 0.03927,-0.42788 0.295589,-0.651122 0.256315,-0.225309 0.68833,-0.225309 0.436149,0 0.690396,0.241845 0.254248,0.241846 0.254248,0.599446 0,0.181901 -0.07441,0.357601 -0.07441,0.1757 -0.248046,0.370003 -0.171566,0.194303 -0.572575,0.5333 -0.334863,0.28112 -0.429947,0.382405 -0.09508,0.09922 -0.157097,0.200505 z"
           id="text3"
           style="font-size:4.23333px;font-family:Arial;-inkscape-font-specification:Arial;stroke-width:0.379"
           aria-label="NTROW = 2" />
        <path
           d="m 24.486296,16.801462 v -3.030303 h 0.411344 l 1.591633,2.379181 v -2.379181 h 0.384472 v 3.030303 h -0.411344 l -1.591632,-2.381248 v 2.381248 z m 3.832321,0 v -2.672703 h -0.998388 v -0.3576 h 2.401919 v 0.3576 h -1.002522 v 2.672703 z m 3.977015,-1.062466 0.401009,0.101285 q -0.126091,0.494027 -0.454752,0.754476 -0.326595,0.258382 -0.799951,0.258382 -0.489892,0 -0.797883,-0.198438 -0.305925,-0.200504 -0.467155,-0.578775 -0.159163,-0.378271 -0.159163,-0.812353 0,-0.473356 0.179834,-0.824755 0.181901,-0.353467 0.514696,-0.535368 0.334863,-0.183968 0.735872,-0.183968 0.454752,0 0.764811,0.231511 0.310058,0.23151 0.432014,0.651122 l -0.394807,0.09302 q -0.10542,-0.330729 -0.305924,-0.481624 -0.200505,-0.150895 -0.504362,-0.150895 -0.349332,0 -0.584977,0.167431 -0.233577,0.167432 -0.328662,0.450618 -0.09508,0.28112 -0.09508,0.580843 0,0.386539 0.111621,0.675927 0.113688,0.287321 0.351399,0.429948 0.237712,0.142626 0.514697,0.142626 0.33693,0 0.570508,-0.194303 0.233577,-0.194303 0.316259,-0.576708 z m 0.773079,-0.413411 q 0,-0.754476 0.405143,-1.180289 0.405143,-0.427881 1.04593,-0.427881 0.419613,0 0.756543,0.200505 0.33693,0.200504 0.512629,0.560172 0.177767,0.3576 0.177767,0.812353 0,0.460953 -0.186035,0.824755 -0.186035,0.363802 -0.527099,0.551904 -0.341064,0.186035 -0.735872,0.186035 -0.42788,0 -0.76481,-0.206706 -0.33693,-0.206706 -0.510563,-0.564306 -0.173633,-0.357601 -0.173633,-0.756542 z m 0.413411,0.0062 q 0,0.547769 0.293522,0.864029 0.295589,0.314192 0.740006,0.314192 0.452685,0 0.74414,-0.318326 0.293522,-0.318327 0.293522,-0.903303 0,-0.370003 -0.12609,-0.644922 -0.124024,-0.276985 -0.365869,-0.42788 -0.239779,-0.152962 -0.539502,-0.152962 -0.425813,0 -0.733804,0.293521 -0.305925,0.291455 -0.305925,0.975651 z m 2.984828,1.469676 v -3.030303 h 0.401009 v 2.672703 h 1.492414 v 0.3576 z"
           id="text5"
           style="font-size:4.23333px;font-family:Arial;-inkscape-font-specification:Arial;stroke-width:0.379"
           aria-label="NTCOL" />
        <path
           d="m 43.508004,15.156959 h -2.00091 v -0.347265 h 2.00091 z m 0,0.91984 h -2.00091 v -0.347266 h 2.00091 z m 3.542933,0.504361 v 0.357601 h -2.002976 q -0.0041,-0.134359 0.04341,-0.258382 0.07648,-0.204639 0.243912,-0.403076 0.169499,-0.198437 0.487825,-0.458886 0.494027,-0.405143 0.667659,-0.640788 0.173633,-0.237711 0.173633,-0.448551 0,-0.221175 -0.159163,-0.37207 -0.157096,-0.152962 -0.411344,-0.152962 -0.268718,0 -0.429948,0.161231 -0.16123,0.16123 -0.163297,0.446484 l -0.382406,-0.03927 q 0.03927,-0.427881 0.295589,-0.651123 0.256315,-0.225309 0.68833,-0.225309 0.436149,0 0.690396,0.241845 0.254248,0.241846 0.254248,0.599447 0,0.1819 -0.07441,0.3576 -0.07441,0.1757 -0.248046,0.370003 -0.171566,0.194303 -0.572575,0.5333 -0.334863,0.28112 -0.429947,0.382406 -0.09508,0.09922 -0.157097,0.200504 z"
           id="text6"
           style="font-size:4.23333px;font-family:Arial;-inkscape-font-specification:Arial;stroke-width:0.379"
           aria-label="= 2" />
      </g>
    </g>
    <rect
       style="fill:#cc3b83;fill-opacity:1;stroke:none;stroke-width:0.807848;stroke-opacity:1"
       id="rect3-0-2"
       width="25.436296"
       height="12.663783"
       x="108.74276"
       y="118.64891" />
    <rect
       style="fill:#cc3b83;fill-opacity:1;stroke:none;stroke-width:0.807848;stroke-opacity:1"
       id="rect3-0-2-2"
       width="25.436296"
       height="12.663783"
       x="105.64368"
       y="-168.71573"
       transform="rotate(90.061425)" />
  </g>
</svg>
